# xmcd
#
# Track frame offsets: 
#        150
#        22291
#        42119
#        65179
#        82485
#        95344
#        113026
#        129100
#        145897
#        193823
#        215277
#        230448
#        245975
#
# Disc length: 3748 seconds
#
# Revision: 21
# Processed by: cddbd v1.5.2PL0 Copyright (c) Steve Scherf et al.
# Submitted via: ExactAudioCopy v0.99pb4
#
DISCID=c50ea20d
DTITLE=Joe Bonamassa - So, It's Like That
DYEAR=2002
DGENRE=Blues
TTITLE0=My Mistake
TTITLE1=Lie #1
TTITLE2=No Slack
TTITLE3=Unbroken
TTITLE4=So, It's Like That
TTITLE5=Waiting For Me
TTITLE6=Never Say Goodbye
TTITLE7=Mountain Time
TTITLE8=Pain And Sorrow
TTITLE9=Takin' The Hit
TTITLE10=Under The Radar
TTITLE11=Sick In Love
TTITLE12=The Hard Way
EXTD=Year: 2002 Id3g: 0
EXTT0=
EXTT1=
EXTT2=
EXTT3=
EXTT4=
EXTT5=
EXTT6=
EXTT7=
EXTT8=
EXTT9=
EXTT10=
EXTT11=
EXTT12=
PLAYORDER=
